<svg width="24" height="24" viewBox="0 0 24 24" fill="none" xmlns="http://www.w3.org/2000/svg">
<path d="M12 0C5.373 0 0 5.373 0 12C0 18.627 5.373 24 12 24C18.627 24 24 18.627 24 12C24 5.373 18.627 0 12 0ZM18.361 15.967L16.493 15.993C16.493 15.993 16.09 16.072 15.563 15.708C14.864 15.228 14.205 13.979 13.691 14.141C13.17 14.307 13.186 15.431 13.186 15.431C13.186 15.431 13.19 15.629 13.071 15.758C12.942 15.897 12.689 15.883 12.689 15.883H11.852C11.852 15.883 10.006 16.036 8.379 14.34C6.607 12.491 5.041 8.842 5.041 8.842C5.041 8.842 4.949 8.612 5.047 8.494C5.158 8.364 5.457 8.36 5.457 8.36L7.457 8.35C7.457 8.35 7.645 8.383 7.781 8.483C7.892 8.565 7.955 8.719 7.955 8.719C7.955 8.719 8.278 9.538 8.707 10.28C9.543 11.726 9.931 12.043 10.215 11.888C10.629 11.662 10.505 9.844 10.505 9.844C10.505 9.844 10.513 9.184 10.297 8.89C10.129 8.661 9.813 8.593 9.675 8.576C9.562 8.561 9.746 8.299 9.986 8.181C10.346 8.005 10.982 7.995 11.733 8.002C12.318 8.008 12.487 8.044 12.715 8.1C13.405 8.267 13.171 8.911 13.171 10.456C13.171 10.951 13.082 11.647 13.438 11.876C13.592 11.975 13.967 11.891 14.902 10.297C15.347 9.541 15.68 8.653 15.68 8.653C15.68 8.653 15.753 8.495 15.866 8.427C15.982 8.357 16.138 8.379 16.138 8.379L18.243 8.366C18.243 8.366 18.875 8.29 18.978 8.577C19.086 8.877 18.742 9.578 17.882 10.725C16.47 12.609 16.313 12.434 17.486 13.524C18.606 14.565 18.837 15.071 18.876 15.135C19.339 15.906 18.361 15.967 18.361 15.967Z" fill="white"/>
</svg>
