<svg width="28" height="21" viewBox="0 0 28 21" fill="none" xmlns="http://www.w3.org/2000/svg">
<path d="M14.0892 0.498047H14.245C15.6835 0.503297 22.9722 0.555797 24.9375 1.0843C25.5316 1.24559 26.073 1.55999 26.5075 1.99606C26.9421 2.43214 27.2546 2.97462 27.4137 3.5693C27.5905 4.2343 27.7148 5.11455 27.7987 6.0228L27.8162 6.2048L27.8547 6.6598L27.8687 6.8418C27.9825 8.4413 27.9965 9.9393 27.9982 10.2665V10.3978C27.9965 10.7373 27.9807 12.3368 27.8547 14.0028L27.8408 14.1865L27.825 14.3685C27.7375 15.3695 27.608 16.3635 27.4137 17.095C27.2546 17.6897 26.9421 18.2322 26.5075 18.6683C26.073 19.1044 25.5316 19.4188 24.9375 19.58C22.9075 20.126 15.1917 20.1645 14.1225 20.1663H13.874C13.3333 20.1663 11.0968 20.1558 8.75175 20.0753L8.45425 20.0648L8.302 20.0578L8.00275 20.0455L7.7035 20.0333C5.761 19.9475 3.91125 19.8093 3.059 19.5783C2.4651 19.4172 1.92386 19.103 1.48934 18.6673C1.05482 18.2315 0.742216 17.6894 0.58275 17.095C0.3885 16.3653 0.259 15.3695 0.1715 14.3685L0.1575 14.1848L0.1435 14.0028C0.056636 12.817 0.0087768 11.6287 0 10.4398L0 10.2245C0.0035 9.8483 0.0175 8.54805 0.112 7.11305L0.12425 6.9328L0.1295 6.8418L0.1435 6.6598L0.182 6.2048L0.1995 6.0228C0.2835 5.11455 0.40775 4.23255 0.5845 3.5693C0.743698 2.97462 1.05618 2.43214 1.49072 1.99606C1.92526 1.55999 2.46664 1.24559 3.06075 1.0843C3.913 0.856797 5.76275 0.716797 7.70525 0.629297L8.00275 0.617047L8.30375 0.606547L8.45425 0.601297L8.7535 0.589047C10.419 0.535503 12.0852 0.50575 13.7515 0.499797L14.0892 0.498047ZM11.2 6.11555V14.547L18.4748 10.333L11.2 6.11555Z" fill="white"/>
</svg>
