<svg width="61" height="61" viewBox="0 0 61 61" fill="none" xmlns="http://www.w3.org/2000/svg">
<g clip-path="url(#clip0_506_262)">
<path d="M7.625 0C5.60272 0 3.66328 0.803346 2.23331 2.23331C0.803346 3.66328 0 5.60272 0 7.625L0 53.375C0 55.3973 0.803346 57.3367 2.23331 58.7667C3.66328 60.1967 5.60272 61 7.625 61H53.375C55.3973 61 57.3367 60.1967 58.7667 58.7667C60.1967 57.3367 61 55.3973 61 53.375V7.625C61 5.60272 60.1967 3.66328 58.7667 2.23331C57.3367 0.803346 55.3973 0 53.375 0L7.625 0ZM32.4062 17.1562V39.2421L40.5879 31.0566C40.7651 30.8794 40.9755 30.7388 41.2071 30.6429C41.4387 30.547 41.6869 30.4976 41.9375 30.4976C42.1881 30.4976 42.4363 30.547 42.6679 30.6429C42.8995 30.7388 43.1099 30.8794 43.2871 31.0566C43.4644 31.2339 43.6049 31.4443 43.7009 31.6758C43.7968 31.9074 43.8462 32.1556 43.8462 32.4062C43.8462 32.6569 43.7968 32.9051 43.7009 33.1367C43.6049 33.3682 43.4644 33.5786 43.2871 33.7559L31.8496 45.1934C31.6726 45.3709 31.4622 45.5117 31.2306 45.6078C30.999 45.7039 30.7507 45.7534 30.5 45.7534C30.2493 45.7534 30.001 45.7039 29.7694 45.6078C29.5378 45.5117 29.3274 45.3709 29.1504 45.1934L17.7129 33.7559C17.5356 33.5786 17.395 33.3682 17.2991 33.1367C17.2032 32.9051 17.1538 32.6569 17.1538 32.4062C17.1538 32.1556 17.2032 31.9074 17.2991 31.6758C17.395 31.4443 17.5356 31.2339 17.7129 31.0566C18.0708 30.6987 18.5563 30.4976 19.0625 30.4976C19.3131 30.4976 19.5613 30.547 19.7929 30.6429C20.0245 30.7388 20.2349 30.8794 20.4121 31.0566L28.5938 39.2421V17.1562C28.5938 16.6507 28.7946 16.1658 29.1521 15.8083C29.5096 15.4508 29.9944 15.25 30.5 15.25C31.0056 15.25 31.4904 15.4508 31.8479 15.8083C32.2054 16.1658 32.4062 16.6507 32.4062 17.1562Z" fill="#3C3C3C"/>
</g>
<defs>
<clipPath id="clip0_506_262">
<rect width="61" height="61" fill="white"/>
</clipPath>
</defs>
</svg>
