<svg width="84" height="84" viewBox="0 0 84 84" fill="none" xmlns="http://www.w3.org/2000/svg">
<path fill-rule="evenodd" clip-rule="evenodd" d="M42 15.75C47.6734 15.7522 53.1934 17.5924 57.7332 20.995C62.273 24.3975 65.5882 29.1793 67.1823 34.6242C68.7765 40.069 68.5637 45.8837 66.5758 51.1975C64.588 56.5112 60.9321 61.0379 56.1558 64.0995C51.3794 67.1612 45.7397 68.593 40.0813 68.1805C34.423 67.768 29.0505 65.5334 24.7687 61.8114C20.4869 58.0894 17.5261 53.0804 16.33 47.5345C15.1338 41.9887 15.7666 36.2046 18.1335 31.0485C18.3911 30.4216 18.3963 29.7194 18.148 29.0888C17.8996 28.4582 17.417 27.9481 16.8011 27.6652C16.1852 27.3824 15.4837 27.3487 14.8436 27.5712C14.2034 27.7938 13.6741 28.2553 13.3665 28.8592C10.5263 35.0468 9.76729 41.9881 11.2031 48.6432C12.639 55.2984 16.1924 61.3093 21.3312 65.7754C26.4699 70.2415 32.9173 72.9226 39.7076 73.4169C46.498 73.9112 53.2657 72.1922 58.997 68.5173C64.7284 64.8425 69.1149 59.4096 71.4994 53.0326C73.884 46.6555 74.1382 39.6775 72.2241 33.1438C70.3099 26.6102 66.3304 20.8725 60.8817 16.7903C55.433 12.7081 48.8083 10.5012 42 10.5V15.75Z" fill="#3C3C3C"/>
<path d="M41.9998 23.4465V2.80346C41.9997 2.55407 41.9285 2.30987 41.7947 2.09944C41.6608 1.88902 41.4697 1.7211 41.2439 1.61533C41.018 1.50957 40.7667 1.47034 40.5194 1.50224C40.272 1.53414 40.0389 1.63585 39.8473 1.79546L27.4573 12.117C27.3096 12.2401 27.1907 12.3943 27.1092 12.5685C27.0276 12.7427 26.9854 12.9326 26.9854 13.125C26.9854 13.3173 27.0276 13.5073 27.1092 13.6815C27.1907 13.8556 27.3096 14.0098 27.4573 14.133L39.8473 24.4545C40.0389 24.6141 40.272 24.7158 40.5194 24.7477C40.7667 24.7796 41.018 24.7404 41.2439 24.6346C41.4697 24.5288 41.6608 24.3609 41.7947 24.1505C41.9285 23.9401 41.9997 23.6959 41.9998 23.4465Z" fill="#3C3C3C"/>
<path d="M21.1582 49.3091V47.3471L25.5682 43.5491C26.1202 43.0571 26.5582 42.6551 26.8822 42.3431C27.2182 42.0191 27.4582 41.7131 27.6022 41.4251C27.7462 41.1371 27.8182 40.8251 27.8182 40.4891C27.8182 39.9731 27.6742 39.5591 27.3862 39.2471C27.1102 38.9231 26.6842 38.7611 26.1082 38.7611C25.4482 38.7611 24.9382 38.9411 24.5782 39.3011C24.2182 39.6491 24.0382 40.2491 24.0382 41.1011H21.3382C21.3382 40.1531 21.5182 39.3371 21.8782 38.6531C22.2382 37.9571 22.7722 37.4231 23.4802 37.0511C24.2002 36.6791 25.0762 36.4931 26.1082 36.4931C27.0682 36.4931 27.8782 36.6671 28.5382 37.0151C29.1982 37.3511 29.6902 37.8191 30.0142 38.4191C30.3502 39.0191 30.5182 39.7091 30.5182 40.4891C30.5182 41.0651 30.3802 41.6051 30.1042 42.1091C29.8402 42.6131 29.4862 43.0931 29.0422 43.5491C28.5982 44.0051 28.1002 44.4611 27.5482 44.9171L24.9562 47.0771H30.6982V49.3091H21.1582ZM37.6936 49.3091V46.6451H31.7536V44.7731L37.6936 36.7091H40.3936V44.4131H41.8156V46.6451H40.3936V49.3091H37.6936ZM34.2736 44.4131H37.6936V39.7151L34.2736 44.4131ZM43.0743 52.9091L48.8163 36.7091H50.9583L45.2163 52.9091H43.0743ZM53.5227 49.3091L57.7707 38.9411H51.7047V36.7091H60.5067V38.6711L56.3847 49.3091H53.5227Z" fill="#3C3C3C"/>
</svg>
