<svg width="65" height="61" viewBox="0 0 65 61" fill="none" xmlns="http://www.w3.org/2000/svg">
<path d="M65 30.5C65 45.2391 50.4481 57.1875 32.5 57.1875C29.2809 57.1942 26.075 56.802 22.9653 56.0209C20.5928 57.1494 15.145 59.3149 5.98 60.7255C5.1675 60.8475 4.55 60.0545 4.87094 59.3454C6.30906 56.1581 7.60906 51.911 7.99906 48.0375C3.0225 43.3481 0 37.21 0 30.5C0 15.7609 14.5519 3.8125 32.5 3.8125C50.4481 3.8125 65 15.7609 65 30.5ZM20.3125 30.5C20.3125 29.4889 19.8845 28.5191 19.1226 27.8042C18.3608 27.0892 17.3274 26.6875 16.25 26.6875C15.1726 26.6875 14.1392 27.0892 13.3774 27.8042C12.6155 28.5191 12.1875 29.4889 12.1875 30.5C12.1875 31.5111 12.6155 32.4809 13.3774 33.1958C14.1392 33.9108 15.1726 34.3125 16.25 34.3125C17.3274 34.3125 18.3608 33.9108 19.1226 33.1958C19.8845 32.4809 20.3125 31.5111 20.3125 30.5ZM36.5625 30.5C36.5625 29.4889 36.1345 28.5191 35.3726 27.8042C34.6108 27.0892 33.5774 26.6875 32.5 26.6875C31.4226 26.6875 30.3892 27.0892 29.6274 27.8042C28.8655 28.5191 28.4375 29.4889 28.4375 30.5C28.4375 31.5111 28.8655 32.4809 29.6274 33.1958C30.3892 33.9108 31.4226 34.3125 32.5 34.3125C33.5774 34.3125 34.6108 33.9108 35.3726 33.1958C36.1345 32.4809 36.5625 31.5111 36.5625 30.5ZM48.75 34.3125C49.8274 34.3125 50.8608 33.9108 51.6226 33.1958C52.3845 32.4809 52.8125 31.5111 52.8125 30.5C52.8125 29.4889 52.3845 28.5191 51.6226 27.8042C50.8608 27.0892 49.8274 26.6875 48.75 26.6875C47.6726 26.6875 46.6392 27.0892 45.8774 27.8042C45.1155 28.5191 44.6875 29.4889 44.6875 30.5C44.6875 31.5111 45.1155 32.4809 45.8774 33.1958C46.6392 33.9108 47.6726 34.3125 48.75 34.3125Z" fill="#3C3C3C"/>
</svg>
