<svg width="65" height="65" viewBox="0 0 65 65" fill="none" xmlns="http://www.w3.org/2000/svg">
<path fill-rule="evenodd" clip-rule="evenodd" d="M24.375 14.2188C24.375 12.6026 25.017 11.0526 26.1598 9.90982C27.3026 8.76702 28.8526 8.125 30.4688 8.125H34.5312C36.1474 8.125 37.6974 8.76702 38.8402 9.90982C39.983 11.0526 40.625 12.6026 40.625 14.2188V18.2812C40.625 19.8974 39.983 21.4474 38.8402 22.5902C37.6974 23.733 36.1474 24.375 34.5312 24.375V28.4375H56.875C57.4137 28.4375 57.9304 28.6515 58.3113 29.0324C58.6922 29.4134 58.9062 29.93 58.9062 30.4688V34.5312C58.9062 35.07 58.6922 35.5866 58.3113 35.9676C57.9304 36.3485 57.4137 36.5625 56.875 36.5625C56.3363 36.5625 55.8196 36.3485 55.4387 35.9676C55.0578 35.5866 54.8438 35.07 54.8438 34.5312V32.5H34.5312V34.5312C34.5312 35.07 34.3172 35.5866 33.9363 35.9676C33.5554 36.3485 33.0387 36.5625 32.5 36.5625C31.9613 36.5625 31.4446 36.3485 31.0637 35.9676C30.6828 35.5866 30.4688 35.07 30.4688 34.5312V32.5H10.1562V34.5312C10.1562 35.07 9.94224 35.5866 9.56131 35.9676C9.18038 36.3485 8.66372 36.5625 8.125 36.5625C7.58628 36.5625 7.06962 36.3485 6.68869 35.9676C6.30776 35.5866 6.09375 35.07 6.09375 34.5312V30.4688C6.09375 29.93 6.30776 29.4134 6.68869 29.0324C7.06962 28.6515 7.58628 28.4375 8.125 28.4375H30.4688V24.375C28.8526 24.375 27.3026 23.733 26.1598 22.5902C25.017 21.4474 24.375 19.8974 24.375 18.2812V14.2188ZM0 46.7188C0 45.1026 0.642018 43.5526 1.78482 42.4098C2.92762 41.267 4.47759 40.625 6.09375 40.625H10.1562C11.7724 40.625 13.3224 41.267 14.4652 42.4098C15.608 43.5526 16.25 45.1026 16.25 46.7188V50.7812C16.25 52.3974 15.608 53.9474 14.4652 55.0902C13.3224 56.233 11.7724 56.875 10.1562 56.875H6.09375C4.47759 56.875 2.92762 56.233 1.78482 55.0902C0.642018 53.9474 0 52.3974 0 50.7812L0 46.7188ZM24.375 46.7188C24.375 45.1026 25.017 43.5526 26.1598 42.4098C27.3026 41.267 28.8526 40.625 30.4688 40.625H34.5312C36.1474 40.625 37.6974 41.267 38.8402 42.4098C39.983 43.5526 40.625 45.1026 40.625 46.7188V50.7812C40.625 52.3974 39.983 53.9474 38.8402 55.0902C37.6974 56.233 36.1474 56.875 34.5312 56.875H30.4688C28.8526 56.875 27.3026 56.233 26.1598 55.0902C25.017 53.9474 24.375 52.3974 24.375 50.7812V46.7188ZM48.75 46.7188C48.75 45.1026 49.392 43.5526 50.5348 42.4098C51.6776 41.267 53.2276 40.625 54.8438 40.625H58.9062C60.5224 40.625 62.0724 41.267 63.2152 42.4098C64.358 43.5526 65 45.1026 65 46.7188V50.7812C65 52.3974 64.358 53.9474 63.2152 55.0902C62.0724 56.233 60.5224 56.875 58.9062 56.875H54.8438C53.2276 56.875 51.6776 56.233 50.5348 55.0902C49.392 53.9474 48.75 52.3974 48.75 50.7812V46.7188Z" fill="#3C3C3C"/>
</svg>
