<svg width="59" height="58" viewBox="0 0 59 58" fill="none" xmlns="http://www.w3.org/2000/svg">
<g clip-path="url(#clip0_505_240)">
<path fill-rule="evenodd" clip-rule="evenodd" d="M0 0H3.6875V54.375H59V58H0V0ZM36.875 12.6875C36.875 12.2068 37.0693 11.7458 37.415 11.4059C37.7608 11.066 38.2298 10.875 38.7188 10.875H53.4688C53.9577 10.875 54.4267 11.066 54.7725 11.4059C55.1182 11.7458 55.3125 12.2068 55.3125 12.6875V27.1875C55.3125 27.6682 55.1182 28.1292 54.7725 28.4691C54.4267 28.809 53.9577 29 53.4688 29C52.9798 29 52.5108 28.809 52.165 28.4691C51.8193 28.1292 51.625 27.6682 51.625 27.1875V17.7625L38.3021 33.7741C38.139 33.9698 37.936 34.1298 37.7062 34.2437C37.4765 34.3577 37.225 34.4231 36.9679 34.4357C36.7109 34.4483 36.454 34.4079 36.2138 34.3171C35.9736 34.2262 35.7555 34.087 35.5733 33.9082L26.0338 24.5304L12.5522 42.7533C12.2573 43.1219 11.8285 43.3638 11.356 43.4282C10.8834 43.4925 10.4038 43.3743 10.0181 43.0983C9.63235 42.8224 9.37042 42.4102 9.28738 41.9483C9.20433 41.4865 9.30662 41.011 9.57275 40.6217L24.3228 20.6842C24.4793 20.4722 24.6808 20.2961 24.9132 20.168C25.1457 20.0399 25.4036 19.9629 25.6693 19.9422C25.935 19.9215 26.2021 19.9577 26.4521 20.0483C26.7022 20.1388 26.9293 20.2816 27.1179 20.4667L36.7386 29.928L49.5784 14.5H38.7188C38.2298 14.5 37.7608 14.309 37.415 13.9691C37.0693 13.6292 36.875 13.1682 36.875 12.6875Z" fill="#3C3C3C"/>
</g>
<defs>
<clipPath id="clip0_505_240">
<rect width="59" height="58" fill="white"/>
</clipPath>
</defs>
</svg>
