<svg width="61" height="61" viewBox="0 0 61 61" fill="none" xmlns="http://www.w3.org/2000/svg">
<g clip-path="url(#clip0_505_246)">
<path d="M46.398 36.3331C55.1935 26.4511 58.8954 18.4753 60.2793 12.6269C61.08 9.24526 61.0952 6.60319 60.8893 4.75413C60.8094 4.02884 60.6717 3.31109 60.4776 2.60769C60.3963 2.30965 60.297 2.01682 60.1802 1.73082C59.9019 1.10557 59.5397 0.834882 58.8382 0.602319C58.6373 0.536704 58.4338 0.479467 58.2282 0.430757C57.5133 0.260361 56.7871 0.141865 56.0551 0.0761942C54.187 -0.0915558 51.5182 -0.0381807 48.1251 0.792944C42.2691 2.21882 34.3315 5.91313 24.6363 14.5332L15.4863 15.4406H15.4634C13.2647 15.6851 11.2151 16.6722 9.65315 18.2389L0.571775 27.3356C0.28414 27.6252 0.0945537 27.9978 0.0296869 28.4008C-0.0351799 28.8038 0.0279371 29.2171 0.210159 29.5823C0.39238 29.9476 0.684536 30.2466 1.04553 30.4372C1.40652 30.6278 1.81817 30.7004 2.22259 30.6448L9.45109 29.6116C10.5186 29.4591 11.7081 29.6612 13.092 30.1149C13.9765 30.4046 14.7581 30.7249 15.5892 31.0604L16.3631 31.3768C17.1104 34.4878 18.8794 37.4006 21.2241 39.7453C23.5611 42.0861 26.4701 43.8628 29.5773 44.6138L29.8899 45.3839C30.2292 46.2151 30.5495 47.0004 30.8392 47.8888C31.2891 49.2727 31.495 50.466 31.3425 51.5335L30.3093 58.7773C30.2547 59.1809 30.3278 59.5915 30.5183 59.9515C30.7088 60.3115 31.0072 60.6029 31.3715 60.7849C31.7359 60.9669 32.1481 61.0303 32.5504 60.9664C32.9526 60.9024 33.3248 60.7141 33.6147 60.4281L42.6961 51.3314C44.2592 49.7683 45.2428 47.7134 45.4868 45.5136L46.398 36.3331ZM46.8174 22.2306C43.7788 25.2806 39.4593 25.8944 37.1794 23.6108C34.8995 21.3233 35.5172 17.0037 38.5557 13.9575C41.5981 10.9113 45.9138 10.2975 48.1937 12.5812C50.4736 14.8649 49.8598 19.1844 46.8212 22.2306H46.8174Z" fill="#3C3C3C"/>
<path d="M19.8445 41.1254C21.8681 43.176 24.1862 44.9132 26.7223 46.2799C22.4599 50.1191 7.93046 54.0117 7.45389 53.5351C6.97352 53.0509 10.2637 37.5646 14.4651 33.7864C15.7842 36.417 17.6561 38.9332 19.8445 41.1254Z" fill="#3C3C3C"/>
</g>
<defs>
<clipPath id="clip0_505_246">
<rect width="61" height="61" fill="white"/>
</clipPath>
</defs>
</svg>
