<svg width="27" height="27" viewBox="0 0 27 27" fill="none" xmlns="http://www.w3.org/2000/svg">
<path d="M20.4863 14.7707L11.2354 22.8639C10.1453 23.819 8.4375 23.0428 8.4375 21.5932V5.40672C8.43722 5.08231 8.53046 4.76469 8.70605 4.49191C8.88164 4.21912 9.13214 4.00273 9.42754 3.86865C9.72295 3.73457 10.0507 3.68848 10.3717 3.7359C10.6926 3.78332 10.9931 3.92225 11.2371 4.13603L20.4846 12.2293C20.6658 12.3877 20.8111 12.583 20.9106 12.8022C21.0102 13.0213 21.0617 13.2593 21.0617 13.5C21.0617 13.7407 21.0102 13.9786 20.9106 14.1978C20.8111 14.4169 20.6658 14.6123 20.4846 14.7707H20.4863Z" fill="white"/>
</svg>
