<svg width="60" height="60" viewBox="0 0 60 60" fill="none" xmlns="http://www.w3.org/2000/svg">
<g clip-path="url(#clip0_309_223)">
<path d="M52.5 3.75C53.4946 3.75 54.4484 4.14509 55.1516 4.84835C55.8549 5.55161 56.25 6.50544 56.25 7.5V52.5C56.25 53.4946 55.8549 54.4484 55.1516 55.1516C54.4484 55.8549 53.4946 56.25 52.5 56.25H7.5C6.50544 56.25 5.55161 55.8549 4.84835 55.1516C4.14509 54.4484 3.75 53.4946 3.75 52.5V7.5C3.75 6.50544 4.14509 5.55161 4.84835 4.84835C5.55161 4.14509 6.50544 3.75 7.5 3.75H52.5ZM7.5 0C5.51088 0 3.60322 0.790176 2.1967 2.1967C0.790176 3.60322 0 5.51088 0 7.5L0 52.5C0 54.4891 0.790176 56.3968 2.1967 57.8033C3.60322 59.2098 5.51088 60 7.5 60H52.5C54.4891 60 56.3968 59.2098 57.8033 57.8033C59.2098 56.3968 60 54.4891 60 52.5V7.5C60 5.51088 59.2098 3.60322 57.8033 2.1967C56.3968 0.790176 54.4891 0 52.5 0L7.5 0Z" fill="white"/>
<path d="M41.1375 18.6373C41.6623 18.1171 42.3708 17.8243 43.1097 17.8223C43.8487 17.8202 44.5588 18.1091 45.0864 18.6264C45.6141 19.1438 45.917 19.848 45.9296 20.5868C45.9422 21.3257 45.6635 22.0398 45.1537 22.5748L30.1837 41.2873C29.9264 41.5644 29.6159 41.7868 29.2707 41.9412C28.9255 42.0956 28.5527 42.1787 28.1747 42.1857C27.7966 42.1927 27.421 42.1234 27.0703 41.982C26.7196 41.8405 26.4011 41.6297 26.1337 41.3623L16.215 31.4398C15.9387 31.1823 15.717 30.8718 15.5633 30.5268C15.4096 30.1819 15.3269 29.8094 15.3203 29.4318C15.3136 29.0542 15.3831 28.679 15.5245 28.3288C15.666 27.9786 15.8765 27.6605 16.1436 27.3934C16.4107 27.1264 16.7288 26.9158 17.079 26.7744C17.4292 26.6329 17.8043 26.5634 18.1819 26.5701C18.5596 26.5768 18.932 26.6594 19.277 26.8132C19.622 26.9669 19.9325 27.1885 20.19 27.4648L28.0425 35.3136L41.0662 18.7198L41.1375 18.6373Z" fill="white"/>
</g>
<defs>
<clipPath id="clip0_309_223">
<rect width="60" height="60" fill="white"/>
</clipPath>
</defs>
</svg>
